#!OML:ASF E:\Style4\Style4.ASF
:FULLY-SPECIFIED
:DEGREES
636
root -0.0580204 16.6627 -2.03178 10.6043 -0.768446 3.22146
lowerback 10.9306 1.67865 -2.72624
upperback 1.47688 1.86953 -0.627229
thorax -4.6504 0.963529 0.604502
lowerneck 3.67196 -3.89299 -6.93934
upperneck 1.39586 -5.45548 4.91541
head 0.15508 -2.77722 2.80743
rclavicle 3.97569e-015 -7.95139e-016
rhumerus -26.5381 -8.43627 -47.3465
rradius 68.4807
rwrist -55.2977
rhand -16.2687 25.4964
rfingers 7.12502
rthumb 9.94096 -4.24889
lclavicle 3.97569e-015 -7.95139e-016
lhumerus -28.347 8.27472 46.1055
lradius 69.9393
lwrist 56.025
lhand -2.36795 21.3469
lfingers 7.12502
lthumb 23.3204 49.9544
rfemur -39.2264 -0.400195 14.8477
rtibia 58.6028
rfoot -27.1099 -15.4257
rtoes -13.7687
lfemur -37.6328 -1.16427 -22.4341
ltibia 56.3836
lfoot -27.5493 7.66145
ltoes -16.5943
637
root -0.0606583 16.6616 -2.03287 10.6009 -0.720043 3.19723
lowerback 10.9569 1.65399 -2.71478
upperback 1.46107 1.83818 -0.60394
thorax -4.68095 0.948457 0.62603
lowerneck 3.64146 -3.86518 -6.93888
upperneck 1.42082 -5.41689 4.89509
head 0.165168 -2.7577 2.79938
rclavicle -2.19657e-014 9.14409e-015
rhumerus -26.5127 -8.37818 -47.395
rradius 68.4935
rwrist -55.3436
rhand -16.1896 25.4782
rfingers 7.12502
rthumb 10.0173 -4.26338
lclavicle -2.19657e-014 9.14409e-015
lhumerus -28.4084 8.23764 46.1304
lradius 69.9798
lwrist 56.0102
lhand -2.33287 21.2999
lfingers 7.12502
lthumb 23.3541 49.9031
rfemur -39.2141 -0.409338 14.8857
rtibia 58.6133
rfoot -27.1242 -15.4242
rtoes -13.3694
lfemur -37.6495 -1.18113 -22.3909
ltibia 56.389
lfoot -27.5157 7.65484
ltoes -16.7879
638
root -0.0628099 16.6607 -2.03459 10.6101 -0.672183 3.1739
lowerback 10.9693 1.64381 -2.69666
upperback 1.44966 1.82718 -0.585021
thorax -4.69951 0.943127 0.636688
lowerneck 3.68189 -3.8636 -6.91855
upperneck 1.34445 -5.41495 4.86047
head 0.132181 -2.75635 2.78617
rclavicle -7.25564e-015 2.78299e-015
rhumerus -26.4887 -8.35608 -47.4325
rradius 68.4676
rwrist -55.281
rhand -16.2083 25.5125
rfingers 7.12502
rthumb 9.99921 -4.22999
lclavicle -7.25564e-015 2.78299e-015
lhumerus -28.4301 8.17732 46.1782
lradius 70.0286
lwrist 56.017
lhand -2.35772 21.2714
lfingers 7.12502
lthumb 23.3303 49.8777
rfemur -39.2296 -0.409815 14.9199
rtibia 58.6257
rfoot -27.1875 -15.3795
rtoes -12.9839
lfemur -37.6831 -1.20533 -22.3449
ltibia 56.4017
lfoot -27.4852 7.64055
ltoes -16.8199
639
root -0.0642257 16.6601 -2.03558 10.6047 -0.635997 3.20202
lowerback 10.9808 1.62724 -2.72119
upperback 1.44619 1.80188 -0.584743
thorax -4.70946 0.931214 0.654199
lowerneck 3.6873 -3.86159 -6.90715
upperneck 1.32984 -5.41184 4.84674
head 0.125674 -2.75464 2.77981
rclavicle 1.2424e-014 3.97569e-015
rhumerus -26.4671 -8.28862 -47.4843
rradius 68.4511
rwrist -55.247
rhand -16.2723 25.6031
rfingers 7.12502
rthumb 9.93748 -4.14237
lclavicle 1.2424e-014 3.97569e-015
lhumerus -28.4649 8.11551 46.2156
lradius 70.0763
lwrist 56.0039
lhand -2.41383 21.3449
lfingers 7.12502
lthumb 23.2764 49.958
rfemur -39.2227 -0.441309 14.8997
rtibia 58.6349
rfoot -27.1966 -15.3775
rtoes -12.9741
lfemur -37.6973 -1.21946 -22.3667
ltibia 56.4126
lfoot -27.4968 7.66468
ltoes -16.9811
